<?xml version="1.0" encoding="UTF-8" standalone="no"?>
<svg xmlns="http://www.w3.org/2000/svg" width="1200" height="900" viewBox="0 0 1200 900">
  <!-- 背景 -->
  <rect width="1200" height="900" fill="#07102B" />
  
  <!-- 标题 -->
  <text x="600" y="100" font-family="Arial" font-size="60" font-weight="bold" text-anchor="middle" fill="#FFFFFF">SOLDRIP FLOW</text>
  
  <!-- 圆形节点 -->
  <circle cx="265" cy="280" r="80" fill="#07102B" stroke="#FFFFFF" stroke-width="3" />
  <text x="265" y="290" font-family="Arial" font-size="28" text-anchor="middle" fill="#FFFFFF">TRADE</text>
  
  <circle cx="475" cy="280" r="80" fill="#07102B" stroke="#FFFFFF" stroke-width="3" />
  <text x="475" y="290" font-family="Arial" font-size="28" text-anchor="middle" fill="#FFFFFF">5% TAX</text>
  
  <circle cx="685" cy="280" r="80" fill="#07102B" stroke="#FFFFFF" stroke-width="3" />
  <text x="685" y="290" font-family="Arial" font-size="28" text-anchor="middle" fill="#FFFFFF">SWAP</text>
  
  <circle cx="895" cy="280" r="80" fill="#07102B" stroke="#FFFFFF" stroke-width="3" />
  <text x="895" y="270" font-family="Arial" font-size="28" text-anchor="middle" fill="#FFFFFF">SOL</text>
  <text x="895" y="310" font-family="Arial" font-size="28" text-anchor="middle" fill="#FFFFFF">POOL</text>
  
  <circle cx="1105" cy="280" r="80" fill="#07102B" stroke="#FFFFFF" stroke-width="3" />
  <text x="1105" y="290" font-family="Arial" font-size="28" text-anchor="middle" fill="#FFFFFF">REWARD</text>
  
  <!-- 连接线 -->
  <line x1="345" y1="280" x2="395" y2="280" stroke="#FFFFFF" stroke-width="3" />
  <line x1="555" y1="280" x2="605" y2="280" stroke="#FFFFFF" stroke-width="3" />
  <line x1="765" y1="280" x2="815" y2="280" stroke="#FFFFFF" stroke-width="3" />
  <line x1="975" y1="280" x2="1025" y2="280" stroke="#FFFFFF" stroke-width="3" />
  
  <!-- 下方分支 -->
  <line x1="475" y1="360" x2="475" y2="470" stroke="#FFFFFF" stroke-width="3" />
  <line x1="475" y1="470" x2="625" y2="470" stroke="#FFFFFF" stroke-width="3" />
  <line x1="325" y1="470" x2="475" y2="470" stroke="#FFFFFF" stroke-width="3" />
  
  <!-- 虚线 -->
  <line x1="625" y1="470" x2="685" y2="360" stroke="#FFFFFF" stroke-width="3" stroke-dasharray="10,10" />
  
  <!-- 方框 -->
  <rect x="225" y="500" width="200" height="120" rx="20" fill="#07102B" stroke="#FFFFFF" stroke-width="3" />
  <text x="325" y="550" font-family="Arial" font-size="50" text-anchor="middle" fill="#FFFFFF">1%</text>
  <text x="325" y="590" font-family="Arial" font-size="20" text-anchor="middle" fill="#FFFFFF">LIQUIDITY</text>
  
  <rect x="525" y="500" width="200" height="120" rx="20" fill="#07102B" stroke="#FFFFFF" stroke-width="3" />
  <text x="625" y="550" font-family="Arial" font-size="50" text-anchor="middle" fill="#FFFFFF">4%</text>
  <text x="625" y="590" font-family="Arial" font-size="20" text-anchor="middle" fill="#FFFFFF">DIVIDENDS</text>
  
  <!-- 右侧信息 -->
  <rect x="900" y="535" width="250" height="70" rx="35" fill="#07102B" stroke="#FFFFFF" stroke-width="3" />
  <text x="1025" y="580" font-family="Arial" font-size="30" text-anchor="middle" fill="#FFFFFF">5 MIN CYCLE</text>
  
  <rect x="900" y="650" width="250" height="70" rx="35" fill="#07102B" stroke="#FFFFFF" stroke-width="3" />
  <text x="1025" y="695" font-family="Arial" font-size="30" text-anchor="middle" fill="#FFFFFF">AUDITED</text>
  
  <rect x="900" y="765" width="250" height="70" rx="35" fill="#07102B" stroke="#FFFFFF" stroke-width="3" />
  <text x="1025" y="810" font-family="Arial" font-size="30" text-anchor="middle" fill="#FFFFFF">LP LOCKED</text>
</svg>
