<?xml version="1.0" encoding="UTF-8" standalone="no"?>
<svg width="800" height="400" viewBox="0 0 800 400" xmlns="http://www.w3.org/2000/svg">
  <!-- Background -->
  <rect width="800" height="400" fill="#1E2937" rx="20" ry="20" />
  
  <!-- Flow Boxes -->
  <!-- Buy DRIP -->
  <rect x="50" y="150" width="120" height="100" fill="#3B82F6" rx="10" ry="10" />
  <text x="110" y="180" font-family="Arial, sans-serif" font-size="16" font-weight="bold" text-anchor="middle" fill="white">Buy DRIP</text>
  <text x="110" y="210" font-family="Arial, sans-serif" font-size="12" text-anchor="middle" fill="white">Purchase tokens</text>
  <text x="110" y="230" font-family="Arial, sans-serif" font-size="12" text-anchor="middle" fill="white">on DEX</text>
  
  <!-- Hold Tokens -->
  <rect x="220" y="150" width="120" height="100" fill="#10B981" rx="10" ry="10" />
  <text x="280" y="180" font-family="Arial, sans-serif" font-size="16" font-weight="bold" text-anchor="middle" fill="white">Hold DRIP</text>
  <text x="280" y="210" font-family="Arial, sans-serif" font-size="12" text-anchor="middle" fill="white">Keep tokens in</text>
  <text x="280" y="230" font-family="Arial, sans-serif" font-size="12" text-anchor="middle" fill="white">your wallet</text>
  
  <!-- Auto Dividends -->
  <rect x="390" y="150" width="120" height="100" fill="#F59E0B" rx="10" ry="10" />
  <text x="450" y="180" font-family="Arial, sans-serif" font-size="16" font-weight="bold" text-anchor="middle" fill="white">Auto-Dividends</text>
  <text x="450" y="210" font-family="Arial, sans-serif" font-size="12" text-anchor="middle" fill="white">Every 5 minutes</text>
  <text x="450" y="230" font-family="Arial, sans-serif" font-size="12" text-anchor="middle" fill="white">0.1 SOL threshold</text>
  
  <!-- Holding Bonus -->
  <rect x="560" y="150" width="120" height="100" fill="#EF4444" rx="10" ry="10" />
  <text x="620" y="180" font-family="Arial, sans-serif" font-size="16" font-weight="bold" text-anchor="middle" fill="white">Holding Bonus</text>
  <text x="620" y="210" font-family="Arial, sans-serif" font-size="12" text-anchor="middle" fill="white">Hold 7+ days</text>
  <text x="620" y="230" font-family="Arial, sans-serif" font-size="12" text-anchor="middle" fill="white">Get 1.1x rewards</text>
  
  <!-- Flow Arrows -->
  <path d="M170,200 L220,200" stroke="white" stroke-width="3" />
  <polygon points="215,195 225,200 215,205" fill="white" />
  
  <path d="M340,200 L390,200" stroke="white" stroke-width="3" />
  <polygon points="385,195 395,200 385,205" fill="white" />
  
  <path d="M510,200 L560,200" stroke="white" stroke-width="3" />
  <polygon points="555,195 565,200 555,205" fill="white" />
  
  <!-- Title -->
  <text x="400" y="80" font-family="Arial, sans-serif" font-size="32" font-weight="bold" text-anchor="middle" fill="white">SolDrip Token Flow</text>
  <text x="400" y="120" font-family="Arial, sans-serif" font-size="18" text-anchor="middle" fill="#14F195">Earn SOL directly to your wallet every 5 minutes</text>
  
  <!-- SOL Drip Symbol -->
  <path d="M400,320 L400,350 Q400,370 385,370 Q370,370 370,350 Q370,330 385,320 Q400,310 400,320 Z" fill="#14F195" />
  <path d="M400,320 L400,350 Q400,370 415,370 Q430,370 430,350 Q430,330 415,320 Q400,310 400,320 Z" fill="#10B981" />
</svg> 